<svg  width="1372" height="1337" viewBox="0 0 1372 1337" fill="none" xmlns="http://www.w3.org/2000/svg" >
<path d="M52.0974 -23.3282C-33.9162 -122.907 7.06076 -207.564 38.301 -237.444L482.886 -713.901L2122.3 815.841L1677.71 1292.3C1650.06 1325.53 1568.44 1372.26 1463.15 1293.34C1331.54 1194.68 1292.62 1242.88 1240.18 1262.37C1187.73 1281.86 1124.52 1291.3 1049.3 1166.77C974.071 1042.24 882.931 939.083 742.21 936.571C629.634 934.561 564.587 885.538 542.811 865.218C521.034 844.899 467.632 783.396 457.845 671.228C445.611 531.017 336.403 447.226 206.972 380.789C77.5404 314.351 82.587 250.638 98.405 196.975C114.223 143.313 159.615 101.146 52.0974 -23.3282Z" fill="black"/>
<path d="M52.0974 -23.3282C-33.9162 -122.907 7.06076 -207.564 38.301 -237.444L482.886 -713.901L2122.3 815.841L1677.71 1292.3C1650.06 1325.53 1568.44 1372.26 1463.15 1293.34C1331.54 1194.68 1292.62 1242.88 1240.18 1262.37C1187.73 1281.86 1124.52 1291.3 1049.3 1166.77C974.071 1042.24 882.931 939.083 742.21 936.571C629.634 934.561 564.587 885.538 542.811 865.218C521.034 844.899 467.632 783.396 457.845 671.228C445.611 531.017 336.403 447.226 206.972 380.789C77.5404 314.351 82.587 250.638 98.405 196.975C114.223 143.313 159.615 101.146 52.0974 -23.3282Z" fill="url(#paint0_linear_101_73)"/>
<defs>
<linearGradient id="paint0_linear_101_73" x1="-765.041" y1="-505.73" x2="1226.03" y2="1099.53" gradientUnits="userSpaceOnUse">
<stop stop-color="#ED374D"/>
<stop offset="0.505208" stop-color="#FA793F"/>
<stop offset="1" stop-color="#F7F651"/>
</linearGradient>
</defs>
</svg>
